<svg width="12" height="11" viewBox="0 0 12 11" fill="none" xmlns="http://www.w3.org/2000/svg">
<path fill-rule="evenodd" clip-rule="evenodd" d="M5.4 1.15789C5.06862 1.15789 4.8 1.4171 4.8 1.73684V2.31579H7.2V1.73684C7.2 1.4171 6.93138 1.15789 6.6 1.15789H5.4ZM8.4 2.31579V1.73684C8.4 0.777613 7.59414 0 6.6 0H5.4C4.40589 0 3.6 0.777613 3.6 1.73684V2.31579H1.2C0.537258 2.31579 0 2.8342 0 3.47368V9.84211C0 10.4816 0.537258 11 1.2 11H10.8C11.4628 11 12 10.4816 12 9.84211V3.47368C12 2.8342 11.4628 2.31579 10.8 2.31579H8.4ZM4.2 3.47368H1.2V9.84211H10.8V3.47368H7.8H4.2Z" fill="#1B232F"/>
</svg>
