<svg width="32" height="32" viewBox="0 0 32 32" fill="none" xmlns="http://www.w3.org/2000/svg">
<g id="Group 336">
<path id="Vector" fill-rule="evenodd" clip-rule="evenodd" d="M16 4L19.3333 7.07074L23.832 6.89473L24.4413 11.425L28 14.225L25.6 18.0919L26.5533 22.5612L22.2667 23.9558L20.168 28L16 26.271L11.832 28L9.73334 23.9558L5.44666 22.5612L6.4 18.0919L4 14.225L7.55866 11.425L8.168 6.89473L12.6667 7.07074L16 4ZM16 5.82782L13.5613 8.07402L13.1587 8.445L12.6147 8.42469L9.324 8.29606L8.87866 11.6078L8.80534 12.1562L8.37466 12.4933L5.77334 14.5418L7.528 17.3715L7.81866 17.8373L7.70266 18.3789L7.00666 21.646L10.1413 22.6668L10.66 22.8361L10.9147 23.3248L12.448 26.2818L15.496 25.0186L16 24.8088L16.504 25.0186L19.552 26.2818L21.0867 23.3248L21.34 22.8361L21.8587 22.6668L24.9933 21.646L24.2973 18.3789L24.1813 17.8373L24.472 17.3715L26.228 14.5418L23.6253 12.4933L23.1947 12.1562L23.1213 11.6078L22.6747 8.29606L19.3867 8.42469L18.8413 8.445L18.4387 8.07402L16 5.82782ZM20.2632 13.6149L21.0699 14.694L14.0499 20.1043L10.8619 16.8671L11.8045 15.9098L14.1699 18.3117L20.2632 13.6149Z" fill="white"/>
</g>
</svg>
