<svg width="45" height="30" viewBox="0 0 45 30" fill="none" xmlns="http://www.w3.org/2000/svg">
<path d="M41.8604 28.0393H39.4457L40.301 22.3953L40.432 21.531L39.593 21.2857C39.5042 21.2597 39.4433 21.1786 39.4433 21.086C39.4433 20.98 39.5258 20.8877 39.6308 20.8759L40.5187 20.7758V19.8822V12.8253V11.2642L39.1006 11.9169L23.8757 18.9248L23.8755 18.9249C23.3807 19.1528 22.8569 19.2676 22.3127 19.2676C21.7685 19.2676 21.2447 19.1527 20.7502 18.9249L20.75 18.9248L1.65119 10.1334L20.75 1.34203L20.7501 1.34197C21.2443 1.11439 21.7679 1 22.3127 1C22.8576 1 23.3813 1.11441 23.8753 1.34192L23.8755 1.34203L42.9744 10.1335L41.3691 10.8725L40.7873 11.1403V11.7808V19.8822V20.7758L41.6753 20.8759C41.7803 20.8877 41.8627 20.98 41.8627 21.086C41.8627 21.1787 41.8017 21.2598 41.7131 21.2857L40.8742 21.5311L41.0052 22.3953L41.8604 28.0393Z" stroke="black" stroke-width="2"/>
<path d="M19.1388 21.6404L19.1389 21.6405C20.1418 22.1019 21.2121 22.3369 22.3144 22.3369C23.417 22.3369 24.4873 22.1019 25.4898 21.6404C25.4898 21.6404 25.4898 21.6404 25.4898 21.6404L33.508 17.9494V25.0421C33.508 25.0407 33.5078 25.0413 33.507 25.0441C33.4994 25.0718 33.433 25.3135 32.8992 25.7254C32.3664 26.1365 31.5464 26.5736 30.48 26.9732C28.3557 27.7692 25.4266 28.3523 22.3144 28.3523C19.2023 28.3523 16.2733 27.7693 14.149 26.9733C13.0826 26.5737 12.2627 26.1366 11.7299 25.7254C11.196 25.3135 11.1296 25.0718 11.122 25.0441C11.1213 25.0413 11.1211 25.0407 11.1211 25.0421V17.9494L19.1388 21.6404Z" stroke="black" stroke-width="2"/>
</svg>
