<svg width="32" height="32" viewBox="0 0 32 32" fill="none" xmlns="http://www.w3.org/2000/svg">
<g id="Group 336">
<path id="Vector" d="M15.5 10C10.7396 10 7.36163 14.3434 6.19433 16.0924C5.91334 16.5135 5.94004 17.0833 6.25518 17.4715C7.55131 19.0682 11.1815 23 15.5 23C19.8185 23 23.4487 19.0682 24.7448 17.4715C25.06 17.0833 25.0867 16.5135 24.8056 16.0924C23.6384 14.3434 20.2605 10 15.5 10Z" stroke="white" stroke-width="2"/>
<path id="Vector_2" d="M18 16C18 17.1046 16.8807 18 15.5 18C14.1193 18 13 17.1046 13 16C13 14.8954 14.1193 14 15.5 14C16.8807 14 18 14.8954 18 16Z" fill="white"/>
</g>
</svg>
