<svg width="88" height="88" viewBox="0 0 88 88" fill="none" xmlns="http://www.w3.org/2000/svg">
<g filter="url(#filter0_d_537_90)">
<circle cx="44" cy="40" r="28" fill="white"/>
<circle cx="44" cy="40" r="27.5" stroke="#00F28D"/>
</g>
<path d="M50.7988 50C50.6186 50 50.4384 49.9359 50.2583 49.8719L32.7207 41.2218C32.3003 41.0296 32 40.517 32 40.0044C32 39.4918 32.3003 38.9792 32.7207 38.787L50.1982 30.137C50.5586 29.9448 51.039 29.9448 51.3994 30.2011C51.7598 30.4574 52 30.9059 52 31.3544V48.7185C52 49.167 51.7598 49.6156 51.3994 49.8719C51.2192 49.9359 50.979 50 50.7988 50ZM36.3243 40.0044L49.5375 46.6041V33.4048L36.3243 40.0044Z" fill="#00F28D"/>
<defs>
<filter id="filter0_d_537_90" x="0" y="0" width="88" height="88" filterUnits="userSpaceOnUse" color-interpolation-filters="sRGB">
<feFlood flood-opacity="0" result="BackgroundImageFix"/>
<feColorMatrix in="SourceAlpha" type="matrix" values="0 0 0 0 0 0 0 0 0 0 0 0 0 0 0 0 0 0 127 0" result="hardAlpha"/>
<feOffset dy="4"/>
<feGaussianBlur stdDeviation="8"/>
<feComposite in2="hardAlpha" operator="out"/>
<feColorMatrix type="matrix" values="0 0 0 0 0 0 0 0 0 0 0 0 0 0 0 0 0 0 0.08 0"/>
<feBlend mode="normal" in2="BackgroundImageFix" result="effect1_dropShadow_537_90"/>
<feBlend mode="normal" in="SourceGraphic" in2="effect1_dropShadow_537_90" result="shape"/>
</filter>
</defs>
</svg>
