<svg width="32" height="32" viewBox="0 0 32 32" fill="none" xmlns="http://www.w3.org/2000/svg">
<g id="Group 336">
<path id="Vector" d="M16 5C11.5884 5 8 8.39192 8 12.56C8 15.2362 9.58311 16.9935 10.8551 18.4056C11.7084 19.3514 12.4444 20.1696 12.4444 20.96V25.16H15.1111V26H16.8889V25.16H19.5556V20.96C19.5556 20.1696 20.2916 19.3514 21.1449 18.4056C22.4169 16.9935 24 15.2362 24 12.56C24 8.39192 20.4116 5 16 5ZM17.7778 23.48H14.2222V21.8H17.7778V23.48ZM19.7911 17.3161C18.9707 18.2266 18.1867 19.0969 17.896 20.12H14.104C13.8133 19.0969 13.0293 18.2266 12.2089 17.3161C11.0142 15.9897 9.77778 14.618 9.77778 12.56C9.77778 9.3176 12.5698 6.68 16 6.68C19.4302 6.68 22.2222 9.3176 22.2222 12.56C22.2222 14.618 20.9858 15.9897 19.7911 17.3161ZM16 7.52V9.2C14.0391 9.2 12.4444 10.707 12.4444 12.56H10.6667C10.6667 9.78044 13.0587 7.52 16 7.52Z" fill="#111918"/>
</g>
</svg>
