<svg width="14" height="16" viewBox="0 0 14 16" fill="none" xmlns="http://www.w3.org/2000/svg">
<path d="M7.057 1C3.7775 1 1 3.44439 1 6.33942C1 9.37139 4.2195 12.472 6.385 14.6513C6.3935 14.6601 6.7435 15 7.1745 15H7.2125C7.644 15 7.9915 14.6601 8 14.6513C10.032 12.6072 13 9.23619 13 6.33942C13 3.44395 10.8335 1 7.057 1ZM7.2575 14.0642C7.24 14.0795 7.2145 14.0965 7.192 14.111C7.169 14.097 7.144 14.0795 7.1255 14.0642L6.864 13.8008C4.811 11.7401 1.9995 8.91769 1.9995 6.33898C1.9995 3.91865 4.3155 1.87415 7.0565 1.87415C10.471 1.87415 11.9995 4.11641 11.9995 6.33898C11.9995 8.29642 10.404 10.8961 7.2575 14.0642ZM7.0175 3.64915C5.361 3.64915 4.0175 4.82431 4.0175 6.27423C4.0175 7.72415 5.361 8.89931 7.0175 8.89931C8.674 8.89931 10.0175 7.72371 10.0175 6.27423C10.0175 4.82474 8.6745 3.64915 7.0175 3.64915ZM7.0175 8.02428C5.9145 8.02428 4.9945 7.22013 4.9945 6.25498C4.9945 5.28982 5.8915 4.50492 6.9945 4.50492C8.098 4.50492 8.9945 5.28982 8.9945 6.25498C8.995 7.22013 8.121 8.02428 7.0175 8.02428Z" fill="black" stroke="#1B232F" stroke-width="0.25"/>
</svg>
