<svg width="32" height="34" viewBox="0 0 32 34" fill="none" xmlns="http://www.w3.org/2000/svg">
<path d="M21.7458 18.22C24.0084 16.4656 25.4737 13.7096 25.4737 10.6C25.4737 5.2984 21.2318 1 16 1C10.7682 1 6.52632 5.2984 6.52632 10.6C6.52632 13.7096 7.99158 16.4656 10.2542 18.22C4.82105 20.6248 1 26.332 1 33H31C31 26.332 27.1789 20.6248 21.7458 18.22ZM9.68421 10.6C9.68421 7.0712 12.5176 4.2 16 4.2C19.4824 4.2 22.3158 7.0712 22.3158 10.6C22.3158 14.1288 19.4824 17 16 17C12.5176 17 9.68421 14.1288 9.68421 10.6ZM16 20.2C21.5082 20.2 26.1495 24.2856 27.4671 29.8H4.5329C5.85053 24.2856 10.4918 20.2 16 20.2Z" fill="black" stroke="#F5FFFA" stroke-width="0.75"/>
</svg>
