<svg width="32" height="32" viewBox="0 0 32 32" fill="none" xmlns="http://www.w3.org/2000/svg">
<g id="Group 336">
<path id="Vector" d="M20.7998 19.2199L14.9318 25.1038C14.9317 25.1038 14.9316 25.1039 14.9316 25.104C13.4656 26.5674 11.3961 27.0677 9.5174 26.601L9.02219 26.4779L8.90924 26.9755C8.58174 28.4184 7.28986 29.4974 5.74611 29.4974C3.95337 29.4974 2.5 28.0424 2.5 26.2469C2.5 24.7091 3.56586 23.423 4.99636 23.0828L5.48987 22.9654L5.36539 22.4737C4.90228 20.644 5.35191 18.6289 6.72001 17.1638L8.78179 19.2247C7.82655 20.3307 7.86692 21.9993 8.91488 23.0448C10.0069 24.1473 11.7885 24.15 12.8743 23.0436C12.875 23.043 12.8756 23.0424 12.8762 23.0417L13.4153 22.502L13.4156 22.5018L18.7449 17.158L20.7998 19.2199ZM22.7289 19.0807L22.1839 18.5396L22.1819 18.5376L19.4266 15.7703L19.4258 15.7694L16.8575 13.2028L18.9162 11.1418L24.7788 17.0245L24.7802 17.0258C26.2478 18.4871 26.7624 20.5457 26.2972 22.4142L26.1638 22.9503L26.7104 23.0298C28.2881 23.2594 29.5 24.6133 29.5 26.2496C29.5 28.0578 28.0471 29.5 26.2539 29.5C24.6934 29.5 23.3766 28.3925 23.0897 26.9114L23.0652 26.7853L22.9831 26.6866L22.97 26.6708L22.7567 26.4146L22.4382 26.513C20.5394 27.0992 18.4014 26.6699 16.8639 25.2357L18.9197 23.1743C20.0196 24.1296 21.6892 24.0839 22.7347 23.0373L22.7355 23.0364C23.8184 21.947 23.8228 20.1813 22.7311 19.083L22.7289 19.0807ZM12.7364 21.1266L7.52672 15.919L7.52594 15.9072L7.39463 15.7747L6.85647 15.2315L6.85504 15.2301C5.3221 13.6954 4.84322 11.5016 5.4262 9.5531L5.57862 9.04367L5.06079 8.92286C3.6164 8.58588 2.535 7.29442 2.535 5.74607C2.535 3.95502 3.98917 2.5 5.77674 2.5C7.39123 2.5 8.73127 3.67777 8.98388 5.22478L9.07023 5.75361L9.59182 5.63092C11.3895 5.2081 13.3505 5.66654 14.7937 7.0128L12.7295 9.07944C11.6302 8.12821 9.96518 8.17341 8.91969 9.21501L8.91967 9.215L8.9161 9.21862C7.82904 10.3239 7.82392 12.0889 8.91445 13.1807L14.7922 19.0652L12.7364 21.1266ZM24.919 15.0863L22.86 13.0281C23.8161 11.9285 23.7744 10.2567 22.7301 9.2122L22.7294 9.21151C21.6379 8.12401 19.8728 8.11676 18.7784 9.2164C18.778 9.2168 18.7776 9.21721 18.7772 9.21761L18.237 9.7541L18.2357 9.7554L12.9016 15.0916L10.8458 13.0335L13.4186 10.4616L13.4191 10.4611L16.1791 7.69354L16.1808 7.69183L16.7216 7.15475L16.7216 7.15476L16.7235 7.15286C18.2482 5.62236 20.4294 5.13977 22.3654 5.71874L22.9245 5.88594L23.004 5.30779C23.221 3.7295 24.5822 2.5 26.2189 2.5C28.012 2.5 29.465 3.95532 29.465 5.74607C29.465 7.3999 28.2358 8.76426 26.6454 8.97363L26.0693 9.04948L26.2302 9.60786C26.7708 11.4827 26.3308 13.5733 24.919 15.0863Z" fill="black" stroke="#ADFBDA"/>
</g>
</svg>
