<svg width="45" height="45" viewBox="0 0 45 45" fill="none" xmlns="http://www.w3.org/2000/svg">
<path d="M18.1979 22.3703L21.0713 19.4976C17.728 17.9613 13.6348 18.5672 10.8846 21.318C7.35616 24.8459 7.35616 30.5877 10.8846 34.1168C14.4125 37.6454 20.155 37.6454 23.6829 34.1168C26.4331 31.3667 27.0396 27.2729 25.5033 23.9296L22.63 26.8028C22.914 28.4805 22.4156 30.265 21.1234 31.5567C19.0061 33.6747 15.5615 33.6747 13.4443 31.5567C11.327 29.4394 11.327 25.9948 13.4443 23.8782C14.7364 22.5853 16.5209 22.0862 18.1979 22.3703Z" fill="black" stroke="#F5FFFA"/>
<path d="M28.18 21.2524C31.0627 26.1131 30.4175 32.5013 26.2419 36.6763C21.3014 41.6169 13.2639 41.6169 8.32403 36.6763C3.38349 31.7366 3.38349 23.6983 8.32403 18.7578C12.4984 14.5828 18.8873 13.9377 23.748 16.8198L26.3697 14.1973C20.0383 9.93985 11.3569 10.6053 5.76381 16.1976C-0.587937 22.5487 -0.587937 32.8847 5.76381 39.2358C12.1156 45.5883 22.4503 45.5883 28.8021 39.2358C34.3958 33.6428 35.0605 24.9614 30.8017 18.6293L28.18 21.2524Z" fill="black" stroke="#F5FFFA"/>
<path d="M43.9399 8.12506C43.8047 7.77274 43.4625 7.55564 43.075 7.57327L37.1485 7.85127L37.4272 1.92558C37.4441 1.5374 37.227 1.19658 36.8748 1.06002C36.5245 0.924804 36.1086 1.02214 35.8233 1.30618L29.4992 7.6308L29.1793 14.4607L17.6822 25.9571C17.0973 25.8245 16.4589 25.9814 16.0032 26.4371C15.2958 27.1444 15.2958 28.29 16.0032 28.9973C16.7098 29.7047 17.856 29.7047 18.5634 28.9973C19.0184 28.5415 19.176 27.9032 19.0434 27.3176L30.5399 15.8205L37.3691 15.5013L43.6938 9.17589C43.9785 8.89126 44.0752 8.47662 43.9399 8.12506Z" fill="black" stroke="#F5FFFA"/>
</svg>
