<svg width="40" height="39" viewBox="0 0 40 39" fill="none" xmlns="http://www.w3.org/2000/svg">
<path d="M20 8C21.6569 8 23 6.65685 23 5C23 3.34315 21.6569 2 20 2C18.3431 2 17 3.34315 17 5C17 6.65685 18.3431 8 20 8Z" stroke="#020202" stroke-width="2.5" stroke-miterlimit="10"/>
<path d="M15 13C15 11.6739 15.5268 10.4021 16.4645 9.46447C17.4021 8.52678 18.6739 8 20 8C21.3261 8 22.5979 8.52678 23.5355 9.46447C24.4732 10.4021 25 11.6739 25 13" stroke="#020202" stroke-width="2.5" stroke-miterlimit="10"/>
<path d="M33 27C34.6569 27 36 25.6569 36 24C36 22.3431 34.6569 21 33 21C31.3431 21 30 22.3431 30 24C30 25.6569 31.3431 27 33 27Z" stroke="#020202" stroke-width="2.5" stroke-miterlimit="10"/>
<path d="M28 32C27.9977 31.3427 28.1257 30.6915 28.3766 30.0839C28.6275 29.4762 28.9963 28.9241 29.4619 28.4594C29.9275 27.9946 30.4805 27.6264 31.0893 27.3759C31.698 27.1255 32.3503 26.9977 33.0087 27C33.6657 27 34.3161 27.1295 34.9228 27.381C35.5295 27.6324 36.0805 28.001 36.5443 28.4655C37.008 28.9301 37.3752 29.4814 37.6251 30.0879C37.8749 30.6944 38.0023 31.3442 38 32" stroke="#020202" stroke-width="2.5" stroke-miterlimit="10"/>
<path d="M7.5 27C9.433 27 11 25.6569 11 24C11 22.3431 9.433 21 7.5 21C5.567 21 4 22.3431 4 24C4 25.6569 5.567 27 7.5 27Z" stroke="#020202" stroke-width="2.5" stroke-miterlimit="10"/>
<path d="M2.00003 32C1.99773 31.3442 2.12514 30.6944 2.37495 30.0879C2.62475 29.4814 2.99204 28.9301 3.45575 28.4655C3.91946 28.001 4.47046 27.6324 5.07717 27.381C5.68387 27.1295 6.33434 27 6.99127 27C7.64967 26.9977 8.30202 27.1255 8.91074 27.3759C9.51947 27.6264 10.0725 27.9946 10.5381 28.4594C11.0037 28.9241 11.3725 29.4762 11.6234 30.0839C11.8743 30.6915 12.0023 31.3427 12 32" stroke="#020202" stroke-width="2.5" stroke-miterlimit="10"/>
<path d="M4 18C4.1713 15.3135 4.99382 12.7147 6.39184 10.4429C7.78986 8.17113 9.71844 6.29938 12 5" stroke="#020202" stroke-width="2.5" stroke-miterlimit="10"/>
<path d="M28 5C30.2816 6.29938 32.2101 8.17113 33.6082 10.4429C35.0062 12.7147 35.8287 15.3135 36 18" stroke="#020202" stroke-width="2.5" stroke-miterlimit="10"/>
<path d="M14 36C17.8452 37.3333 22.1548 37.3333 26 36" stroke="#020202" stroke-width="2.5" stroke-miterlimit="10"/>
</svg>
