<svg width="34" height="30" viewBox="0 0 34 30" fill="none" xmlns="http://www.w3.org/2000/svg">
<path d="M29.8006 0.356812H3.4717C1.70602 0.356812 0.269531 1.7933 0.269531 3.55898V20.6371C0.269531 22.4028 1.70602 23.8393 3.4717 23.8393H12.9386L15.7117 28.6425C16.1223 29.3538 17.1507 29.3525 17.5605 28.6425L20.3336 23.8393H29.8005C31.5662 23.8393 33.0027 22.4028 33.0027 20.6371V3.55898C33.0027 1.7933 31.5662 0.356812 29.8006 0.356812ZM30.868 20.6372C30.868 21.2258 30.3891 21.7046 29.8006 21.7046H19.7174C19.336 21.7046 18.9837 21.908 18.7931 22.2383L16.6361 25.9741L14.4793 22.2383C14.2886 21.908 13.9362 21.7045 13.5549 21.7045H3.4717C2.88314 21.7045 2.40429 21.2257 2.40429 20.6371V3.55898C2.40429 2.97042 2.88314 2.49157 3.4717 2.49157H29.8006C30.3891 2.49157 30.868 2.97042 30.868 3.55898V20.6372Z" fill="black"/>
<path d="M23.3349 7.52032L20.3002 8.80555C19.544 9.12591 19.4191 10.1465 20.0735 10.6404L20.4592 10.9315L18.0342 13.9802L14.6147 9.68097C14.1876 9.14407 13.371 9.14413 12.944 9.68097L8.6891 15.0304C8.32213 15.4918 8.39866 16.1633 8.86005 16.5303C9.32158 16.8974 9.99299 16.8205 10.3599 16.3593L13.7794 12.0601L17.199 16.3593C17.626 16.8962 18.4427 16.8961 18.8697 16.3593L22.1637 12.218L22.7084 12.6291C23.3593 13.1204 24.3094 12.7284 24.4108 11.9081L24.8156 8.63191C24.917 7.81115 24.0873 7.1983 23.3349 7.52032Z" fill="black"/>
</svg>
