<svg id="Layer_1" data-name="Layer 1" xmlns="http://www.w3.org/2000/svg" viewBox="0 0 1000 216">
  <path fill="#283684" d="M303.26,72l29.87,72h-13.8L289.56,72Zm58.82,0-20.61,49.75h-13.7L348.38,72Z"></path>
  <path fill="#283684" d="M451,84.36H406.24v47.18H451V144H393V72h58Zm-36.06,29.87,4.23-12.46h24.1v12.46Z"></path>
  <path fill="#283684" d="M553.21,144H537.75L499.54,96.31V144H486.25V72h9.17Zm-14.74-23.79V72h13.29v48.21Z"></path>
  <path fill="#283684" d="M580.62,84.36V72h63.67V84.36ZM605.86,97l13.19-4.53V144H605.86Z"></path>
  <path fill="#283684" d="M666.22,101.77A37.43,37.43,0,0,1,679,79.1a38,38,0,0,1,49.24,0,37.07,37.07,0,0,1,12.87,22.67l-13.08,2a23.45,23.45,0,0,0-8.45-14.62,24.65,24.65,0,0,0-31.93,0,23.32,23.32,0,0,0-8.35,14.62Zm74.89,12.46a37,37,0,0,1-12.87,22.66,37.95,37.95,0,0,1-49.24,0,37.38,37.38,0,0,1-12.78-22.66l13.08-2.06a23.34,23.34,0,0,0,8.35,14.63,24.65,24.65,0,0,0,31.93,0A23.48,23.48,0,0,0,728,112.17Z"></path>
  <path fill="#283684" d="M785.5,85.18V144H772.21V72l37.91-.11a24.28,24.28,0,0,1,17.72,7.32,23.74,23.74,0,0,1,7.41,17.61,22.5,22.5,0,0,1-4.84,14.12,24,24,0,0,1-12.57,8.55l21,24.51H822.38l-28.54-33.37H804c10.72,0,17.93-5.57,17.93-13.81a11,11,0,0,0-3.51-8.24,11.34,11.34,0,0,0-8.34-3.4Z"></path>
  <path fill="#283684" d="M870.72,72l27.4,40.69V144H884.83V115.37L855.58,72Zm56.76,0-19.06,28.12H893.28L912.34,72Z"></path>
  <path fill="#283684" d="M86,97.13a60.08,60.08,0,0,1,118.17,0l11.72-2.23a72,72,0,0,0-141.62,0Z"></path>
  <path fill="#283684" d="M204.12,118.87a60.08,60.08,0,0,1-118.17,0L74.22,121.1a72,72,0,0,0,141.62,0Z"></path>
  <path fill="#283684" d="M122.47,77.78l29.88,72H138.54l-29.77-72Zm58.82,0-20.6,49.75H147l20.6-49.75Z"></path>
</svg>